<svg xmlns="http://www.w3.org/2000/svg" viewBox="0 0 47.5 47.5" id="b"><defs><clipPath id="a"><path d="M0 38h38V0H0v38Z"></path></clipPath></defs><g clip-path="url(#a)" transform="matrix(1.25 0 0 -1.25 0 47.5)"><path fill="#3b88c3" d="M37 5a4 4 0 0 0-4-4H5a4 4 0 0 0-4 4v28a4 4 0 0 0 4 4h28a4 4 0 0 0 4-4V5Z"></path><path fill="#fff" d="M16.149 12.093h3.659c1.674 0 2.915.961 2.915 2.697 0 1.458-1.117 2.45-3.287 2.45h-3.287v-5.147Zm0 9.24h2.419c1.519 0 2.511.899 2.511 2.449 0 1.457-1.147 2.202-2.511 2.202h-2.419v-4.651Zm-4.65 6.418c0 1.488 1.023 2.325 2.449 2.325h5.953c3.224 0 5.83-2.17 5.83-5.457 0-2.17-.901-3.628-2.885-4.557v-.063c2.636-.372 4.713-2.573 4.713-5.27 0-4.372-2.914-6.729-7.194-6.729h-6.386c-1.427 0-2.48.9-2.48 2.357v17.394z"></path></g></svg>